<svg width="64" height="64" viewBox="0 0 64 64" fill="none" xmlns="http://www.w3.org/2000/svg">
<path d="M0 32C0 14.3269 14.3269 0 32 0C49.6731 0 64 14.3269 64 32C64 49.6731 49.6731 64 32 64C14.3269 64 0 49.6731 0 32Z" fill="#F5F1EB"/>
<path d="M30.6667 42.6667C28.3254 42.6738 26.067 41.8007 24.3394 40.2206C22.6117 38.6405 21.541 36.4688 21.3397 34.1362C21.1383 31.8036 21.8209 29.4806 23.2522 27.6277C24.6835 25.7749 26.7589 24.5277 29.0667 24.1334C36.6667 22.6667 38.6667 21.9734 41.3333 18.6667C42.6667 21.3334 44 24.2401 44 29.3334C44 36.6667 37.6267 42.6667 30.6667 42.6667Z" stroke="#A0795F" stroke-width="2.66667" stroke-linecap="round" stroke-linejoin="round"/>
<path d="M18.6667 44C18.6667 40 21.1334 36.8533 25.44 36C28.6667 35.36 32 33.3333 33.3334 32" stroke="#A0795F" stroke-width="2.66667" stroke-linecap="round" stroke-linejoin="round"/>
</svg>
