<svg width="20" height="20" viewBox="0 0 20 20" fill="none" xmlns="http://www.w3.org/2000/svg">
<path d="M1.66675 7.91667C1.66677 6.98933 1.94808 6.08382 2.47353 5.31972C2.99898 4.55562 3.74385 3.96888 4.60976 3.637C5.47567 3.30511 6.42188 3.2437 7.32343 3.46087C8.22497 3.67803 9.03944 4.16356 9.65925 4.85333C9.7029 4.90001 9.75568 4.93722 9.81431 4.96266C9.87294 4.98811 9.93617 5.00123 10.0001 5.00123C10.064 5.00123 10.1272 4.98811 10.1859 4.96266C10.2445 4.93722 10.2973 4.90001 10.3409 4.85333C10.9588 4.15908 11.7734 3.66947 12.6764 3.44967C13.5795 3.22986 14.528 3.29029 15.3958 3.6229C16.2636 3.95551 17.0096 4.54454 17.5343 5.31158C18.0591 6.07862 18.3378 6.9873 18.3334 7.91667C18.3334 9.825 17.0834 11.25 15.8334 12.5L11.2567 16.9275C11.1015 17.1058 10.91 17.2491 10.6951 17.3478C10.4802 17.4464 10.2468 17.4982 10.0103 17.4997C9.77386 17.5012 9.53979 17.4524 9.32365 17.3564C9.10752 17.2605 8.91427 17.1197 8.75675 16.9433L4.16675 12.5C2.91675 11.25 1.66675 9.83333 1.66675 7.91667Z" stroke="#2C2419" stroke-width="1.66667" stroke-linecap="round" stroke-linejoin="round"/>
</svg>
