<svg width="20" height="20" viewBox="0 0 20 20" fill="none" xmlns="http://www.w3.org/2000/svg">
<path d="M13.3334 8.33333C13.3334 9.21738 12.9822 10.0652 12.3571 10.6904C11.732 11.3155 10.8841 11.6667 10.0001 11.6667C9.11603 11.6667 8.26818 11.3155 7.64306 10.6904C7.01794 10.0652 6.66675 9.21738 6.66675 8.33333" stroke="#2C2419" stroke-width="1.66667" stroke-linecap="round" stroke-linejoin="round"/>
<path d="M2.58594 5.02834H17.4143" stroke="#2C2419" stroke-width="1.66667" stroke-linecap="round" stroke-linejoin="round"/>
<path d="M2.83333 4.55584C2.61696 4.84433 2.5 5.19522 2.5 5.55584V16.6667C2.5 17.1087 2.67559 17.5326 2.98816 17.8452C3.30072 18.1577 3.72464 18.3333 4.16667 18.3333H15.8333C16.2754 18.3333 16.6993 18.1577 17.0118 17.8452C17.3244 17.5326 17.5 17.1087 17.5 16.6667V5.55584C17.5 5.19522 17.383 4.84433 17.1667 4.55584L15.5 2.33334C15.3448 2.12634 15.1434 1.95834 14.912 1.84263C14.6806 1.72691 14.4254 1.66667 14.1667 1.66667H5.83333C5.57459 1.66667 5.3194 1.72691 5.08798 1.84263C4.85655 1.95834 4.65525 2.12634 4.5 2.33334L2.83333 4.55584Z" stroke="#2C2419" stroke-width="1.66667" stroke-linecap="round" stroke-linejoin="round"/>
</svg>
